<svg xmlns="http://www.w3.org/2000/svg" viewBox="0 0 192 192" width="192" height="192">
  <circle cx="96" cy="96" r="96" fill="white"/>
  <path d="M 22,96 C 40,58 68,38 96,38 C 124,38 152,58 170,96 C 152,134 124,154 96,154 C 68,154 40,134 22,96 Z" fill="#0ea5e9"/>
  <path d="M 36,96 C 52,66 72,50 96,50 C 120,50 140,66 156,96 C 140,126 120,142 96,142 C 72,142 52,126 36,96 Z" fill="white"/>
  <circle cx="96" cy="96" r="28" fill="#0ea5e9"/>
  <circle cx="96" cy="96" r="14" fill="#0c4a6e"/>
  <circle cx="106" cy="84" r="7" fill="white" opacity="0.7"/>
</svg>
